# xmcd CD database file
#
# Track frame offsets:
#	183
#	16335
#	28148
#	46258
#	63170
#	76723
#	91408
#	104720
#	118483
#	132013
#	147658
#	163575
#
# Disc length: 2414 seconds
#
# Revision: 2
# Processed by: cddbd v1.5.2PL0 Copyright (c) Steve Scherf et al.
# Submitted via: CDex 1.94
#
DISCID=a2096c0c
DTITLE=Truck Stop - Zu Hause
DYEAR=1977
DGENRE=Country
TTITLE0=Ich moecht so gern Dave Dudley hoer'n
TTITLE1=Bleifuss Joe
TTITLE2=Meine Tuer steht immer offen
TTITLE3=Hey, Kleiner
TTITLE4=Cowboy bei der Bahn
TTITLE5=Studio Nr. 9
TTITLE6=Die Frau mit dem Gurt
TTITLE7=Das Maedchen wird schoener mit jedem Glas Bier
TTITLE8=Alt und nur im Weg
TTITLE9=Henry's Farm
TTITLE10=Schuldlos im U.G.
TTITLE11=Die Zockerhoehle
EXTD=Metronome 847 775-2 YEAR: 1977
EXTT0=
EXTT1=
EXTT2=
EXTT3=
EXTT4=
EXTT5=
EXTT6=
EXTT7=
EXTT8=
EXTT9=
EXTT10=
EXTT11=
PLAYORDER=
